<?xml version="1.0" encoding="UTF-8" standalone="no"?>
<!DOCTYPE svg PUBLIC "-//W3C//DTD SVG 1.1//EN" "http://www.w3.org/Graphics/SVG/1.1/DTD/svg11.dtd">
<svg xmlns:xl="http://www.w3.org/1999/xlink" version="1.1" xmlns="http://www.w3.org/2000/svg" xmlns:dc="http://purl.org/dc/elements/1.1/" viewBox="138.55469 201.23438 348.44 348.44" width="348.44" height="348.44">
  <defs/>
  <g id="Canvas_1" stroke-dasharray="none" stroke-opacity="1" fill="none" fill-opacity="1" stroke="none">
    <title>Canvas 1</title>
    <g id="Canvas_1_Layer_1">
      <title>Layer 1</title>
      <g id="Group_21">
        <g id="Graphic_12">
          <path d="M 486.9947 375.45438 C 486.9947 471.6744 408.9947 549.6744 312.7747 549.6744 C 216.5547 549.6744 138.55469 471.6744 138.55469 375.45438 C 138.55469 279.23438 216.5547 201.23438 312.7747 201.23438 C 408.9947 201.23438 486.9947 279.23438 486.9947 375.45438 Z M 316.2347 436.6244 L 250.7347 436.6244 C 249.1447 436.6244 245.3647 426.4644 234.8347 430.7244 C 220.3047 436.6044 231.4147 459.5444 245.9447 450.8344 C 248.6547 449.2144 249.3747 446.0644 251.7247 445.6144 C 273.0647 443.9444 297.8247 447.8844 318.7547 445.6144 C 321.6047 445.3044 323.7647 444.5744 324.6547 441.5744 C 325.8747 437.4944 325.8647 415.88438 325.1747 411.16438 C 320.4047 378.47438 289.4147 366.57438 259.8547 370.72438 C 245.9247 372.68438 224.1447 383.68438 212.7347 382.60438 C 202.13469 381.60438 190.21469 368.88438 186.22469 359.60438 C 182.82469 357.03438 177.85469 374.31438 177.49469 376.35438 C 170.76469 414.03438 194.80469 461.2544 223.7747 484.5744 C 263.0247 516.1744 327.7747 526.9944 371.7647 499.6244 C 415.8547 472.1944 421.3547 417.48438 387.2147 379.13438 C 380.5847 371.68438 357.0847 354.73438 355.4647 346.87438 C 353.4847 337.24438 362.3447 334.44438 367.9447 328.75438 C 381.8947 332.46438 397.1247 337.84438 411.7747 337.66438 C 416.3047 337.60438 436.2847 335.54438 434.7947 328.51438 C 433.9647 324.62438 422.5047 320.99438 418.5647 318.77438 C 410.3447 314.13438 400.2447 308.30438 393.2247 302.11438 C 383.0747 293.16438 386.6147 293.14438 383.9547 281.38438 C 372.1747 229.29438 284.4447 228.87438 279.2447 292.12438 C 275.5247 337.39438 303.6747 352.16438 324.6347 384.70438 C 327.7347 389.50438 330.7647 398.00438 333.7847 401.55438 C 338.1347 406.65438 349.0647 409.72438 355.2347 415.10438 C 372.9647 430.5544 376.6747 453.8744 362.0547 472.9444 C 340.1447 501.5144 295.1447 500.6744 263.2747 493.5644 C 259.9847 483.7944 271.0947 483.5844 272.0347 475.8444 C 273.5747 463.2444 256.7347 457.2044 251.4547 468.3344 C 246.6647 478.4344 257.5447 480.8844 255.2147 490.6044 C 227.0347 478.5844 201.98469 455.4444 210.9447 421.8244 C 219.9047 388.20438 270.7347 371.47438 300.1447 389.18438 C 319.0747 400.58438 319.1347 416.31438 316.2247 436.6044 Z M 289.0847 414.77438 C 299.5947 435.5344 317.3847 404.39438 300.6847 401.68438 C 291.0347 400.12438 292.2247 405.74438 287.7147 406.59438 C 285.1147 407.08438 262.4447 406.83438 261.2447 406.11438 C 260.0447 405.39438 258.4047 401.56438 255.5647 399.79438 C 243.7947 392.41438 231.3647 407.26438 239.7747 417.58438 C 245.3747 424.4544 257.2847 422.7544 260.9347 414.60438 L 289.0747 414.77438 Z M 308.3947 464.4644 C 307.0047 463.5844 306.2447 456.7144 298.6547 455.6644 C 282.3747 453.4144 278.5847 478.1444 295.0047 480.4244 C 303.5647 481.6044 305.5747 474.2144 308.7247 473.6044 C 317.1447 471.9844 330.5947 474.7044 339.7547 473.6344 C 353.2947 472.0644 346.5547 450.0044 348.2547 441.1344 C 348.8747 437.9244 352.9247 437.1744 353.2947 432.1044 C 354.2347 419.24438 336.3047 417.51438 334.6747 429.5644 C 333.7347 436.4944 339.5447 438.6444 340.2247 442.1444 L 339.0147 463.3744 C 337.6647 464.8844 309.7347 465.3044 308.3947 464.4644 Z" fill="#a21112"/>
        </g>
        <g id="Graphic_11">
          <path d="M 316.2347 436.6244 C 319.1447 416.33438 319.0847 400.60438 300.1547 389.20438 C 270.7447 371.49438 220.1847 387.22438 210.9547 421.8444 C 201.72469 456.4644 227.0447 478.6044 255.2247 490.6244 C 257.5547 480.9044 246.6747 478.4544 251.4647 468.3544 C 256.7447 457.2244 273.5847 463.2644 272.0447 475.8644 C 271.0947 483.5944 259.9947 483.8144 263.2847 493.5844 C 295.1547 500.6944 340.1547 501.5344 362.0647 472.9644 C 376.6847 453.8944 372.9747 430.5744 355.2447 415.12438 C 349.0747 409.74438 338.1447 406.68438 333.7947 401.57438 C 330.7647 398.02438 327.7347 389.53438 324.6447 384.72438 C 303.6847 352.18438 275.5247 337.42438 279.2547 292.14438 C 284.4547 228.89438 372.1747 229.31438 383.9647 281.40438 C 386.6247 293.16438 383.0847 293.18438 393.2347 302.13438 C 400.2547 308.32438 410.3547 314.15438 418.5747 318.79438 C 422.5047 321.01438 433.9747 324.64438 434.8047 328.53438 C 436.2947 335.56438 416.3247 337.62438 411.7847 337.68438 C 397.1347 337.86438 381.9047 332.48438 367.9547 328.77438 C 362.3647 334.47438 353.4947 337.26438 355.4747 346.89438 C 357.0947 354.75438 380.5947 371.70438 387.2247 379.15438 C 421.3547 417.50438 415.8647 472.2144 371.7747 499.6444 C 327.7847 527.0144 263.0347 516.1844 223.7847 484.5944 C 194.82469 461.2844 170.77469 414.06438 177.50469 376.37438 C 177.86469 374.33438 182.83469 357.05438 186.23469 359.62438 C 190.22469 368.90438 202.14469 381.62438 212.7447 382.62438 C 224.1547 383.70438 245.9347 372.69438 259.8647 370.74438 C 289.4247 366.59438 320.4047 378.49438 325.1847 411.18438 C 325.8747 415.90438 325.8847 437.5044 324.6647 441.5944 C 323.7747 444.5944 321.6047 445.3244 318.7647 445.6344 C 297.8447 447.8944 273.0847 443.9544 251.7347 445.6344 C 249.3747 446.0844 248.6647 449.2344 245.9547 450.8544 C 231.4247 459.5644 220.3147 436.6244 234.8447 430.7444 C 245.3747 426.4844 249.1647 436.6444 250.7447 436.6444 L 316.2447 436.6444 Z M 357.9147 286.33438 C 357.9147 280.59438 353.2647 275.93438 347.5147 275.93438 C 341.7647 275.93438 337.1147 280.58438 337.1147 286.33438 C 337.1147 292.08438 341.7647 296.73438 347.5147 296.73438 C 353.2647 296.73438 357.9147 292.08438 357.9147 286.33438 Z M 243.4547 441.2544 C 243.4547 439.0544 241.6647 437.2644 239.4647 437.2644 C 237.2647 437.2644 235.4747 439.0544 235.4747 441.2544 C 235.4747 443.4544 237.2647 445.2444 239.4647 445.2444 C 241.6647 445.2444 243.4547 443.4544 243.4547 441.2544 Z M 264.4447 473.6144 C 264.4447 471.8444 263.0147 470.4144 261.2447 470.4144 C 259.4747 470.4144 258.0447 471.8444 258.0447 473.6144 C 258.0447 475.3844 259.4747 476.8144 261.2447 476.8144 C 263.0147 476.8144 264.4447 475.3844 264.4447 473.6144 Z" fill="white"/>
        </g>
        <g id="Graphic_10">
          <path d="M 308.3947 464.4644 C 309.7347 465.3144 337.6647 464.8844 339.0147 463.3744 L 340.2247 442.1444 C 339.5447 438.6444 333.7347 436.4944 334.6747 429.5644 C 336.3047 417.51438 354.2347 419.23438 353.2947 432.1044 C 352.9247 437.1744 348.8747 437.9344 348.2547 441.1344 C 346.5547 450.0044 353.2947 472.0744 339.7547 473.6344 C 330.5847 474.6944 317.1447 471.9844 308.7247 473.6044 C 305.5747 474.2044 303.5647 481.6044 295.0047 480.4244 C 278.5847 478.1544 282.3747 453.4144 298.6547 455.6644 C 306.2447 456.7144 306.9947 463.5744 308.3947 464.4644 Z M 347.1347 431.0744 C 347.1347 429.3044 345.7047 427.8744 343.9347 427.8744 C 342.1647 427.8744 340.7347 429.3044 340.7347 431.0744 C 340.7347 432.8444 342.1647 434.2744 343.9347 434.2744 C 345.7047 434.2744 347.1347 432.8444 347.1347 431.0744 Z M 301.0947 467.9344 C 301.0947 465.4544 299.0847 463.4444 296.6047 463.4444 C 294.1247 463.4444 292.1147 465.4544 292.1147 467.9344 C 292.1147 470.4144 294.1247 472.4244 296.6047 472.4244 C 299.0847 472.4244 301.0947 470.4144 301.0947 467.9344 Z" fill="white"/>
        </g>
        <g id="Graphic_9">
          <path d="M 289.0847 414.77438 L 260.9447 414.60438 C 257.2947 422.7544 245.3847 424.4544 239.7847 417.58438 C 231.3747 407.26438 243.8047 392.41438 255.5747 399.79438 C 258.4047 401.57438 260.0447 405.39438 261.2547 406.11438 C 262.4647 406.83438 285.1247 407.09437 287.7247 406.59437 C 292.2347 405.73437 291.0447 400.11438 300.6947 401.68437 C 317.3947 404.39438 299.6147 435.5344 289.0947 414.77438 Z M 253.6047 410.11438 C 253.6047 407.69438 251.6447 405.74438 249.2347 405.74438 C 246.8247 405.74438 244.8647 407.70438 244.8647 410.11438 C 244.8647 412.52438 246.8247 414.48438 249.2347 414.48438 C 251.6447 414.48438 253.6047 412.52438 253.6047 410.11438 Z M 301.1547 411.11438 C 301.1547 409.22438 299.6247 407.69438 297.7347 407.69438 C 295.8447 407.69438 294.3147 409.22438 294.3147 411.11438 C 294.3147 413.00438 295.8447 414.53437 297.7347 414.53437 C 299.6247 414.53437 301.1547 413.00438 301.1547 411.11438 Z" fill="white"/>
        </g>
        <g id="Graphic_8">
          <circle cx="347.5247" cy="286.33438" r="10.4000166181797" fill="#a21112"/>
        </g>
        <g id="Graphic_7">
          <circle cx="239.4647" cy="441.2544" r="3.99000637562858" fill="#a21112"/>
        </g>
        <g id="Graphic_6">
          <circle cx="261.2347" cy="473.6144" r="3.20000511328607" fill="#a21112"/>
        </g>
        <g id="Graphic_5">
          <circle cx="296.6047" cy="467.9344" r="4.49000717457955" fill="#a21112"/>
        </g>
        <g id="Graphic_4">
          <circle cx="343.9347" cy="431.0744" r="3.20000511328606" fill="#a21112"/>
        </g>
        <g id="Graphic_3">
          <circle cx="249.2347" cy="410.11438" r="4.37000698283128" fill="#a21112"/>
        </g>
        <g id="Graphic_2">
          <circle cx="297.7347" cy="411.11438" r="3.42000546482449" fill="#a21112"/>
        </g>
      </g>
    </g>
  </g>
</svg>
